HIERARCHY
ROOT Hips
{
	OFFSET 0.000000 0.000000 0.000000 
	CHANNELS 6 Xposition Yposition Zposition Zrotation Yrotation Xrotation
	JOINT LeftUpLeg
	{
		OFFSET 1.363060 -1.794630 0.839290 
		CHANNELS 3 Zrotation Yrotation Xrotation
		JOINT LeftLeg
		{
			OFFSET 2.448110 -6.726130 0.000000 
			CHANNELS 3 Zrotation Yrotation Xrotation
			JOINT LeftFoot
			{
				OFFSET 2.562200 -7.039590 0.000000 
				CHANNELS 3 Zrotation Yrotation Xrotation
				JOINT LeftToeBase
				{
					OFFSET 0.157640 -0.433110 2.322550 
					CHANNELS 3 Zrotation Yrotation Xrotation
					End Site
					{
						OFFSET 0.000000 0.000000 0.000000 
					}
				}
			}
		}
	}
	JOINT RightUpLeg
	{
		OFFSET -1.305520 -1.794630 0.839290 
		CHANNELS 3 Zrotation Yrotation Xrotation
		JOINT RightLeg
		{
			OFFSET -2.542530 -6.985550 0.000000 
			CHANNELS 3 Zrotation Yrotation Xrotation
			JOINT RightFoot
			{
				OFFSET -2.568260 -7.056230 0.000000 
				CHANNELS 3 Zrotation Yrotation Xrotation
				JOINT RightToeBase
				{
					OFFSET -0.164730 -0.452590 2.363150 
					CHANNELS 3 Zrotation Yrotation Xrotation
					End Site
					{
						OFFSET 0.000000 0.000000 0.000000 
					}
				}
			}
		}
	}
	JOINT Spine
	{
		OFFSET 0.028270 2.035590 -0.193380 
		CHANNELS 3 Zrotation Yrotation Xrotation
		JOINT Spine1
		{
			OFFSET 0.056720 2.048850 -0.042750 
			CHANNELS 3 Zrotation Yrotation Xrotation
			JOINT Neck1
			{
				OFFSET -0.054170 1.746240 0.172020 
				CHANNELS 3 Zrotation Yrotation Xrotation
				JOINT Head
				{
					OFFSET 0.104070 1.761360 -0.123970 
					CHANNELS 3 Zrotation Yrotation Xrotation
					End Site
					{
						OFFSET 0.000000 0.000000 0.000000 
					}
				}
			}
			JOINT LeftArm
			{
				OFFSET 3.362410 1.200890 -0.311210 
				CHANNELS 3 Zrotation Yrotation Xrotation
				JOINT LeftForeArm
				{
					OFFSET 4.983000 -0.000000 -0.000000 
					CHANNELS 3 Zrotation Yrotation Xrotation
					JOINT LeftHand
					{
						OFFSET 3.483560 -0.000000 -0.000000 
						CHANNELS 3 Zrotation Yrotation Xrotation
						JOINT LeftHandIndex1
						{
							OFFSET 0.715260 -0.000000 -0.000000 
							CHANNELS 3 Zrotation Yrotation Xrotation
							End Site
							{
								OFFSET 0.000000 0.000000 0.000000 
							}
						}
					}
				}
			}
			JOINT RightArm
			{
				OFFSET -3.136600 1.374050 -0.404650 
				CHANNELS 3 Zrotation Yrotation Xrotation
				JOINT RightForeArm
				{
					OFFSET -5.241900 -0.000000 -0.000000 
					CHANNELS 3 Zrotation Yrotation Xrotation
					JOINT RightHand
					{
						OFFSET -3.444170 -0.000000 -0.000000 
						CHANNELS 3 Zrotation Yrotation Xrotation
						JOINT RightHandIndex1
						{
							OFFSET -0.622530 -0.000000 -0.000000 
							CHANNELS 3 Zrotation Yrotation Xrotation
							End Site
							{
								OFFSET 0.000000 0.000000 0.000000 
							}
						}
					}
				}
			}
		}
	}
}
MOTION
Frames: 7
Frame Time: 0.041667
5.291011 17.200181 20.048167 -3.887562 3.194005 9.612133 -16.975215 3.649894 3.750101 -2.083492 3.295095 8.209924 1.321359 -2.667960 -3.403000 1.130500 -6.753100 -18.985900 18.577936 18.412194 -26.451795 0.605224 -12.262650 26.306479 -3.333423 12.639912 11.369622 -1.786700 8.406900 -23.956900 1.609242 0.136197 -4.708628 2.954839 0.001362 -11.597760 15.223526 -25.857237 -1.195609 23.683400 -11.017100 1.188900 -80.465688 10.343383 43.212133 61.645189 -51.112117 -36.875145 0.837048 -0.365062 -50.580201 -7.125000 0.000000 0.000000 77.363224 -4.330844 40.058937 -43.565664 47.603514 -22.149034 -0.396642 1.092435 -12.829819 7.125000 0.000000 0.000000 
5.284648 17.194249 20.058304 -3.861505 3.204444 9.592866 -16.978743 3.598574 3.785708 -2.080739 3.323567 8.285930 1.313297 -2.625130 -3.493217 1.134600 -6.765000 -19.021000 18.556521 18.544379 -26.478721 0.568441 -12.345983 26.514411 -3.315917 12.512183 11.217890 -1.788000 8.409800 -23.965800 1.605817 0.120451 -4.719963 2.949650 -0.008403 -11.589882 15.258832 -25.913392 -1.253528 23.703600 -11.026100 1.178700 -80.403482 10.066310 43.243376 61.969814 -51.180699 -37.174573 0.840329 -0.365185 -50.658228 -7.125000 0.000000 0.000000 77.334517 -4.165723 39.873066 -43.965169 47.786601 -22.481117 -0.401124 1.099828 -13.079906 7.125000 0.000000 0.000000 
5.278393 17.188318 20.069196 -3.827515 3.228765 9.573384 -16.987207 3.531795 3.823503 -2.078176 3.355897 8.371177 1.305478 -2.582267 -3.590960 1.139900 -6.780300 -19.066100 18.530307 18.649499 -26.510160 0.529603 -12.430412 26.729893 -3.299017 12.397283 11.063374 -1.786800 8.407100 -23.957500 1.601846 0.099172 -4.730580 2.942490 -0.021216 -11.577504 15.293447 -25.973357 -1.314579 23.722200 -11.035400 1.168600 -80.336592 9.771814 43.301441 62.295915 -51.248190 -37.474237 0.842049 -0.365896 -50.787387 -7.125000 0.000000 0.000000 77.304875 -3.977600 39.664703 -44.360526 47.963777 -22.813106 -0.404499 1.107990 -13.332102 7.125000 0.000000 0.000000 
5.271599 17.182063 20.080628 -3.792683 3.257750 9.558093 -16.992601 3.458584 3.857311 -2.075571 3.389337 8.459246 1.298143 -2.540900 -3.687390 1.145100 -6.795100 -19.109700 18.503224 18.752589 -26.550354 0.489410 -12.516924 26.951408 -3.281897 12.283418 10.907768 -1.783700 8.400300 -23.936700 1.599748 0.074054 -4.742005 2.943300 -0.034528 -11.568253 15.327128 -26.036663 -1.380998 23.740700 -11.044000 1.156900 -80.274434 9.467663 43.372744 62.631793 -51.316435 -37.782054 0.843326 -0.367682 -50.963599 -7.125000 0.000000 0.000000 77.265567 -3.756465 39.446466 -44.733233 48.125699 -23.129430 -0.406396 1.116880 -13.603437 7.125000 0.000000 0.000000 
5.264805 17.175916 20.093138 -3.759608 3.298711 9.541481 -16.993880 3.375249 3.898109 -2.073152 3.421834 8.545867 1.290915 -2.499991 -3.783463 1.150700 -6.811100 -19.156900 18.482983 18.830154 -26.592975 0.447400 -12.604523 27.179165 -3.265671 12.185640 10.745149 -1.778800 8.389200 -23.902700 1.599615 0.041139 -4.753899 2.945149 -0.051747 -11.559679 15.356958 -26.095843 -1.448858 23.759400 -11.049700 1.141200 -80.214266 9.148356 43.452910 62.963817 -51.382092 -38.085634 0.843740 -0.370904 -51.183674 -7.125000 0.000000 0.000000 77.218653 -3.512549 39.222430 -45.087721 48.275684 -23.433297 -0.406869 1.126119 -13.894619 7.125000 0.000000 0.000000 
5.257471 17.169229 20.106619 -3.724619 3.341951 9.522444 -16.992922 3.288879 3.938828 -2.070195 3.457668 8.641478 1.284685 -2.462386 -3.883832 1.156100 -6.826600 -19.202800 18.463688 18.909947 -26.632303 0.404183 -12.692947 27.410316 -3.248800 12.083626 10.576790 -1.774900 8.380600 -23.876100 1.601943 0.003701 -4.769014 2.957906 -0.069094 -11.567597 15.385364 -26.146396 -1.517357 23.782000 -11.051000 1.122400 -80.163457 8.814507 43.527403 63.276772 -51.440915 -38.370863 0.843981 -0.375659 -51.423000 -7.125000 0.000000 0.000000 77.151691 -3.236203 39.016691 -45.411936 48.407109 -23.713242 -0.404987 1.135364 -14.242285 7.125000 0.000000 0.000000 
5.249598 17.162435 20.120639 -3.690799 3.384859 9.499587 -16.989174 3.204507 3.984872 -2.066944 3.492390 8.735490 1.279279 -2.428771 -3.983177 1.159900 -6.837300 -19.234200 18.449002 18.992304 -26.667412 0.360043 -12.782408 27.644397 -3.231426 11.981041 10.402604 -1.772000 8.374100 -23.856300 1.605854 -0.035684 -4.786700 2.976215 -0.086375 -11.591077 15.411422 -26.188312 -1.584404 23.805300 -11.048500 1.102400 -80.118107 8.463226 43.594588 63.565471 -51.491507 -38.632862 0.844350 -0.382041 -51.659900 -7.125000 0.000000 0.000000 77.069314 -2.925000 38.835700 -45.703288 48.519026 -23.965066 -0.400933 1.143177 -14.670636 7.125000 0.000000 0.000000 
